<svg width="50" height="50" viewBox="0 0 50 50" fill="none" xmlns="http://www.w3.org/2000/svg">
<circle cx="25" cy="25" r="25" fill="#A9AFB1"/>
<path d="M34.8027 15.7109H14.1973C12.9833 15.7109 12 16.7003 12 17.9082V31.0918C12 32.3069 12.9905 33.2891 14.1973 33.2891H34.8027C36.0066 33.2891 37 32.311 37 31.0918V17.9082C37 16.7024 36.0207 15.7109 34.8027 15.7109ZM34.495 17.1758C34.0461 17.6223 26.3205 25.3073 26.0537 25.5726C25.6387 25.9876 25.0869 26.2162 24.5 26.2162C23.9131 26.2162 23.3613 25.9876 22.9449 25.5712C22.7655 25.3928 15.1251 17.7927 14.505 17.1758H34.495ZM13.4648 30.7937V18.2073L19.7948 24.5039L13.4648 30.7937ZM14.5059 31.8242L20.8334 25.537L21.9105 26.6084C22.6022 27.3001 23.5218 27.681 24.5 27.681C25.4782 27.681 26.3978 27.3001 27.0881 26.6098L28.1666 25.537L34.4941 31.8242H14.5059ZM35.5352 30.7937L29.2052 24.5039L35.5352 18.2073V30.7937Z" fill="white"/>
</svg>
