<svg width="50" height="50" viewBox="0 0 50 50" fill="none" xmlns="http://www.w3.org/2000/svg">
<circle cx="25" cy="25" r="25" fill="#A9AFB1"/>
<g clip-path="url(#clip0_1991_659)">
<path d="M34.8676 29.5279C34.513 29.3332 34.0677 29.4627 33.873 29.8172C33.6783 30.1717 33.8078 30.617 34.1623 30.8118C35.0348 31.2911 35.5352 31.8224 35.5352 32.2696C35.5352 32.8165 34.7603 33.6642 32.5853 34.4031C30.4366 35.1332 27.5652 35.5352 24.5 35.5352C21.4348 35.5352 18.5634 35.1332 16.4147 34.4031C14.2397 33.6642 13.4648 32.8165 13.4648 32.2696C13.4648 31.8224 13.9652 31.2911 14.8377 30.8117C15.1922 30.617 15.3217 30.1717 15.127 29.8171C14.9322 29.4626 14.487 29.3331 14.1324 29.5279C13.1596 30.0623 12 30.9718 12 32.2696C12 33.2644 12.6842 34.6828 15.9435 35.7901C18.2399 36.5703 21.2787 37 24.5 37C27.7213 37 30.7601 36.5703 33.0565 35.7901C36.3158 34.6828 37 33.2644 37 32.2696C37 30.9718 35.8404 30.0623 34.8676 29.5279Z" fill="white"/>
<path d="M18.9703 33.3442C20.4571 33.7643 22.4209 33.9956 24.5 33.9956C26.5791 33.9956 28.5429 33.7643 30.0297 33.3442C31.8487 32.8304 32.771 32.0866 32.771 31.1336C32.771 30.1805 31.8487 29.4367 30.0297 28.9229C29.6259 28.8088 29.1867 28.7088 28.7198 28.6234C28.4663 29.0615 28.2006 29.5125 27.9228 29.9764C28.4396 30.0539 28.9248 30.149 29.3654 30.2612C30.7041 30.6022 31.1932 30.986 31.2937 31.1336C31.1931 31.2812 30.7041 31.665 29.3655 32.006C28.0984 32.3287 26.4683 32.5127 24.7513 32.5292C24.6682 32.5354 24.5844 32.5388 24.5 32.5388C24.4156 32.5388 24.3318 32.5354 24.2486 32.5292C22.5317 32.5127 20.9015 32.3287 19.6345 32.006C18.2958 31.665 17.8068 31.2812 17.7062 31.1336C17.8068 30.986 18.2958 30.6022 19.6345 30.2612C20.0751 30.149 20.5604 30.0539 21.0772 29.9764C20.7994 29.5125 20.5337 29.0615 20.2802 28.6234C19.8133 28.7088 19.3741 28.8088 18.9703 28.9229C17.1513 29.4367 16.229 30.1805 16.229 31.1336C16.229 32.0866 17.1513 32.8304 18.9703 33.3442Z" fill="white"/>
<path d="M24.5 31.0739C25.152 31.0739 25.7442 30.7417 26.0844 30.1852C28.4677 26.2859 31.3086 21.147 31.3086 18.8085C31.3086 15.0543 28.2543 12 24.5 12C20.7457 12 17.6914 15.0543 17.6914 18.8085C17.6914 21.147 20.5324 26.2859 22.9156 30.1852C23.2558 30.7417 23.848 31.0739 24.5 31.0739ZM21.7633 18.3411C21.7633 16.8321 22.991 15.6045 24.5 15.6045C26.009 15.6045 27.2367 16.8321 27.2367 18.3411C27.2367 19.85 26.009 21.0777 24.5 21.0777C22.991 21.0777 21.7633 19.8501 21.7633 18.3411Z" fill="white"/>
</g>
<defs>
<clipPath id="clip0_1991_659">
<rect width="25" height="25" fill="white" transform="translate(12 12)"/>
</clipPath>
</defs>
</svg>
