<svg width="50" height="50" viewBox="0 0 50 50" fill="none" xmlns="http://www.w3.org/2000/svg">
<circle cx="25" cy="25" r="25" fill="#A9AFB1"/>
<g clip-path="url(#clip0_1991_649)">
<path d="M31.7578 27.4866C31.246 26.9537 30.6286 26.6688 29.9743 26.6688C29.3253 26.6688 28.7027 26.9484 28.1698 27.4813L26.5024 29.1434C26.3653 29.0695 26.2281 29.0009 26.0962 28.9324C25.9062 28.8374 25.7268 28.7477 25.5738 28.6527C24.012 27.6607 22.5926 26.368 21.2313 24.6954C20.5718 23.8617 20.1285 23.16 19.8067 22.4476C20.2393 22.0519 20.6403 21.6403 21.0308 21.2446C21.1785 21.0969 21.3263 20.9439 21.474 20.7961C22.5821 19.6881 22.5821 18.2529 21.474 17.1448L20.0336 15.7044C19.87 15.5408 19.7011 15.372 19.5428 15.2031C19.2263 14.876 18.8938 14.5383 18.5509 14.2217C18.0391 13.7152 17.427 13.4461 16.7833 13.4461C16.1396 13.4461 15.5169 13.7152 14.9893 14.2217C14.984 14.227 14.984 14.227 14.9787 14.2322L13.1848 16.0421C12.5094 16.7174 12.1242 17.5406 12.0398 18.4956C11.9131 20.0363 12.3669 21.4715 12.7152 22.4107C13.5699 24.7165 14.8468 26.8534 16.7516 29.1434C19.0627 31.903 21.8434 34.0821 25.0198 35.6176C26.2334 36.1927 27.8532 36.8734 29.663 36.9895C29.7738 36.9947 29.8899 37 29.9954 37C31.2143 37 32.2379 36.5621 33.0399 35.6915C33.0452 35.6809 33.0558 35.6756 33.061 35.6651C33.3354 35.3327 33.652 35.0319 33.9844 34.71C34.2113 34.4937 34.4435 34.2668 34.6703 34.0294C35.1927 33.4859 35.4671 32.8527 35.4671 32.2037C35.4671 31.5495 35.1874 30.9216 34.6545 30.3939L31.7578 27.4866ZM33.6467 33.0427C33.6414 33.0427 33.6414 33.048 33.6467 33.0427C33.4409 33.2643 33.2299 33.4648 33.003 33.6864C32.66 34.0135 32.3118 34.3565 31.9846 34.7417C31.4517 35.3116 30.8238 35.5806 30.0007 35.5806C29.9216 35.5806 29.8371 35.5806 29.758 35.5754C28.1909 35.4751 26.7346 34.8631 25.6424 34.3407C22.6559 32.8949 20.0336 30.8424 17.8544 28.2411C16.0551 26.0725 14.8521 24.0675 14.0554 21.9147C13.5647 20.6009 13.3853 19.5773 13.4644 18.6117C13.5172 17.9943 13.7546 17.4825 14.1926 17.0446L15.9918 15.2453C16.2504 15.0026 16.5247 14.8707 16.7938 14.8707C17.1262 14.8707 17.3953 15.0712 17.5642 15.24C17.5695 15.2453 17.5747 15.2506 17.58 15.2559C17.9019 15.5566 18.2079 15.8679 18.5298 16.2004C18.6933 16.3692 18.8622 16.538 19.031 16.7122L20.4715 18.1526C21.0308 18.7119 21.0308 19.229 20.4715 19.7883C20.3185 19.9413 20.1707 20.0944 20.0177 20.2421C19.5745 20.6959 19.1524 21.118 18.6933 21.5295C18.6828 21.5401 18.6722 21.5454 18.667 21.5559C18.2132 22.0097 18.2976 22.4529 18.3926 22.7537C18.3979 22.7695 18.4031 22.7853 18.4084 22.8012C18.783 23.7087 19.3107 24.5635 20.1127 25.5818L20.118 25.5871C21.5743 27.3811 23.1097 28.7793 24.8034 29.8505C25.0198 29.9876 25.2414 30.0984 25.4524 30.204C25.6424 30.299 25.8218 30.3886 25.9748 30.4836C25.9959 30.4942 26.017 30.51 26.0381 30.5206C26.2175 30.6103 26.3864 30.6525 26.5605 30.6525C26.9984 30.6525 27.2728 30.3781 27.3625 30.2884L29.167 28.4839C29.3464 28.3045 29.6314 28.0881 29.9638 28.0881C30.2909 28.0881 30.56 28.2939 30.7236 28.4733C30.7289 28.4786 30.7289 28.4786 30.7341 28.4839L33.6414 31.3912C34.1849 31.9294 34.1849 32.4834 33.6467 33.0427Z" fill="white"/>
<path d="M25.5106 17.9468C26.8931 18.179 28.1489 18.8333 29.1514 19.8358C30.1539 20.8383 30.8029 22.0941 31.0403 23.4765C31.0984 23.8248 31.3991 24.0675 31.7421 24.0675C31.7843 24.0675 31.8212 24.0622 31.8635 24.0569C32.2539 23.9936 32.5125 23.6243 32.4491 23.2338C32.1642 21.5612 31.3727 20.0363 30.1644 18.828C28.9561 17.6197 27.4313 16.8282 25.7586 16.5433C25.3682 16.48 25.0041 16.7385 24.9355 17.1237C24.8669 17.5089 25.1202 17.8835 25.5106 17.9468Z" fill="white"/>
<path d="M36.971 23.0282C36.5014 20.2739 35.2034 17.7676 33.2089 15.7731C31.2144 13.7786 28.7081 12.4806 25.9538 12.011C25.5687 11.9424 25.2046 12.2063 25.136 12.5914C25.0727 12.9819 25.3312 13.346 25.7217 13.4146C28.1805 13.8314 30.423 14.9975 32.2064 16.7757C33.9898 18.5591 35.1506 20.8016 35.5675 23.2604C35.6255 23.6086 35.9263 23.8513 36.2692 23.8513C36.3115 23.8513 36.3484 23.8461 36.3906 23.8408C36.7758 23.7827 37.0396 23.4134 36.971 23.0282Z" fill="white"/>
</g>
<defs>
<clipPath id="clip0_1991_649">
<rect width="25" height="25" fill="white" transform="translate(12 12)"/>
</clipPath>
</defs>
</svg>
